<svg xmlns="http://www.w3.org/2000/svg" viewBox="0 0 70 30">
  <defs>
    <style>
      .a {
        fill: #00dbdc;
      }

      .b {
        fill: #f8ff81;
      }
    </style>
  </defs>
  <g>
    <path class="a" d="M54.3,30a27.5,27.5,0,0,0-38.6,0L0,14.4A48.8,48.8,0,0,1,16.4,3.6a49.9,49.9,0,0,1,37.2,0A48.8,48.8,0,0,1,70,14.4Z"/>
    <g>
      <g>
        <path class="b" d="M15.8,12.8l2.9-1.3a2.3,2.3,0,0,1,1.8-.1,1.2,1.2,0,0,1,.7.7h0a1.4,1.4,0,0,1-.3,1.6,1.4,1.4,0,0,1,1.7.9h0c.4,1-.1,1.9-1.5,2.4l-2.9,1.3Zm3.5,1.1c.5-.2.7-.4.5-.8h0c-.1-.3-.4-.4-.9-.2l-1,.5.4,1ZM20.4,16q.8-.3.6-.9h-.1c-.1-.3-.4-.4-.9-.2l-1.2.5.4,1.1Z"/>
        <path class="b" d="M46.8,15.5l1.2-.7a3.6,3.6,0,0,0,1.6,1.4c.5.1.8.1.9-.2h0c0-.2-.1-.4-.8-.9s-1.9-1.4-1.5-2.6h0c.4-1.1,1.5-1.5,2.9-1a3.9,3.9,0,0,1,2.1,1.6l-1.2.8a3.6,3.6,0,0,0-1.4-1.1c-.4-.2-.6-.1-.7.1h0c-.1.2,0,.4.8.9s1.8,1.5,1.4,2.6h0c-.4,1.1-1.6,1.5-3,1A4.2,4.2,0,0,1,46.8,15.5Z"/>
        <path class="b" d="M34.2,8.4H32.3V6.9h5.4V8.4H35.8v8.2H34.2Z"/>
      </g>
      <polygon class="b" points="41.9 13.9 40.8 11.9 42.7 10.8 43.8 12.8 41.9 13.9"/>
      <polygon class="b" points="27.9 13.9 29 11.9 27.1 10.8 26 12.8 27.9 13.9"/>
    </g>
  </g>
</svg>
