<svg xmlns="http://www.w3.org/2000/svg" viewBox="0 0 290 50">
  <defs>
    <style>
      .a {
        fill: #00dbdc;
      }

      .b {
        fill: #f8ff81;
      }
    </style>
  </defs>
  <g>
    <g>
      <path class="a" d="M50,25A25,25,0,1,1,25,0,25,25,0,0,1,50,25Z"/>
      <path class="b" d="M42.2,29.1H34.4a7.5,7.5,0,0,1-5.7-3.3c-1.7-2.5-1.6-5.9.2-10.1l1.8.8c-1.5,3.5-1.6,6.3-.3,8.2a5.6,5.6,0,0,0,4,2.4h7.8Z"/>
      <path class="b" d="M16.4,29.1H7.7v-2h6.7a13.2,13.2,0,0,1,4.9-8.6c4.8-4,10.6-3.6,14.6-3l-.3,2c-3.6-.6-8.8-1-13,2.5s-4.2,8-4.2,8Z"/>
    </g>
    <g>
      <path class="a" d="M110,25A25,25,0,1,1,85,0,25,25,0,0,1,110,25Z"/>
      <path class="b" d="M82.8,41.3l-.6-1.1c-2-3.4-3.1-11.9-3.1-18A17.2,17.2,0,0,1,84.3,9.5l.7-.6.6.6a17.1,17.1,0,0,1,5.3,12.7c0,6.1-1.1,14.6-3.1,18l-.6,1.1L85,39.4ZM85,36.8l1.6,1.3c1.4-3.6,2.3-10.6,2.3-15.9A15.8,15.8,0,0,0,85,11.7a15.3,15.3,0,0,0-3.9,10.5c0,5.3.9,12.3,2.3,15.9Z"/>
    </g>
    <g>
      <path class="a" d="M170,25A25,25,0,1,1,145,0,25,25,0,0,1,170,25Z"/>
      <path class="b" d="M159.3,35.5H133.6v-22h13.7V23.7l7.1,1.2a7.2,7.2,0,0,1,5.8,7,6.6,6.6,0,0,1-.7,3Zm-23.7-2h22.3a4.5,4.5,0,0,0,.3-1.6,5.1,5.1,0,0,0-4.1-5l-8.8-1.5V15.5h-9.7Z"/>
      <rect class="b" x="140.4" y="18.6" width="5.9" height="2"/>
      <rect class="b" x="134.6" y="32" width="24.4" height="2"/>
    </g>
    <g>
      <path class="a" d="M230,25A25,25,0,1,1,205,0,25,25,0,0,1,230,25Z"/>
      <g>
        <polygon class="b" points="221 27.5 198.1 27.5 189 18.4 190.4 17 198.9 25.5 221 25.5 221 27.5"/>
        <rect class="b" x="192.6" y="29.3" width="7.5" height="2" transform="translate(89.8 197.9) rotate(-66.3)"/>
        <rect class="b" x="213.7" y="26.3" width="2" height="7.24" transform="translate(1.5 69.2) rotate(-18.4)"/>
      </g>
      <g>
        <polygon class="b" points="201 13 199.8 11.4 203.4 8.8 204.6 10.4 201 13"/>
        <polygon class="b" points="207.1 17.2 205.3 16.4 207 12.4 208.9 13.2 207.1 17.2"/>
        <rect class="b" x="212.2" y="13.5" width="2" height="4.43" transform="translate(-0.4 24) rotate(-6.4)"/>
      </g>
    </g>
    <g>
      <path class="a" d="M290,25A25,25,0,1,1,265,0,25,25,0,0,1,290,25Z"/>
      <path class="b" d="M274.8,37.6H255.3V11.5h19.5Zm-17.5-2h15.5V13.5H257.3Z"/>
      <path class="b" d="M265,21.7a3.2,3.2,0,1,1,3.1-3.2A3.1,3.1,0,0,1,265,21.7Zm0-4.3a1.1,1.1,0,0,0-1.1,1.1,1.1,1.1,0,1,0,2.2,0A1.1,1.1,0,0,0,265,17.4Z"/>
      <path class="b" d="M265,34.7a6.3,6.3,0,1,1,6.3-6.3A6.3,6.3,0,0,1,265,34.7Zm0-10.5a4.2,4.2,0,0,0-4.2,4.2,4.3,4.3,0,1,0,8.5,0A4.2,4.2,0,0,0,265,24.2Z"/>
    </g>
  </g>
</svg>
