<svg xmlns="http://www.w3.org/2000/svg" viewBox="0 0 132.33 57.47"><defs><style>.cls-1{fill:#00dbdc;}.cls-2{fill:#00b033;}.cls-3{fill:#976b00;}</style></defs><g id="Layer_2" data-name="Layer 2"><g id="Layer_1-2" data-name="Layer 1"><rect class="cls-1" x="61.84" y="30.46" width="70.5" height="6"/><path class="cls-2" d="M46.83,51.72H0V48.64c0-7.23,5.9-23.08,23.41-23.08S46.83,41.41,46.83,48.64ZM6.55,45.55H40.28C39,39.8,34.17,31.73,23.41,31.73S7.85,39.8,6.55,45.55Z"/><rect class="cls-1" x="0.09" y="51.47" width="46.66" height="6"/><rect class="cls-3" x="20.32" y="17.29" width="6.19" height="19.83"/><polygon class="cls-2" points="23.45 21.2 11.87 12.31 15.63 7.42 23.38 13.37 30.83 7.45 34.67 12.28 23.45 21.2"/><polygon class="cls-2" points="23.45 13.78 11.87 4.89 15.63 0 23.38 5.95 30.83 0.03 34.67 4.86 23.45 13.78"/></g></g></svg>