<svg xmlns="http://www.w3.org/2000/svg" viewBox="0 0 285 51">
  <defs>
    <style>
      .a {
        fill: #00dbdc;
      }

      .b {
        fill: #d42000;
      }
    </style>
  </defs>
  <g>
    <rect class="a" width="285" height="51"/>
    <g>
      <path class="b" d="M25.7,34.5a14.1,14.1,0,0,1-3.2-1.3L24.3,29a10.3,10.3,0,0,0,2.6,1.2,12.6,12.6,0,0,0,2.7.4,5.1,5.1,0,0,0,1.6-.2c.3-.2.5-.4.5-.7s-.2-.6-.6-.8L29,28.3l-3.1-.9a4.8,4.8,0,0,1-2.2-1.5,4.4,4.4,0,0,1-.9-2.9,5.5,5.5,0,0,1,.8-2.9A6.1,6.1,0,0,1,26.2,18a10,10,0,0,1,4.1-.7,18.4,18.4,0,0,1,3.3.3l2.8,1.1-1.7,4.2a8.6,8.6,0,0,0-4.5-1.3c-1.3,0-2,.4-2,1.1a.7.7,0,0,0,.6.7l2,.6a15.3,15.3,0,0,1,3.1.8,4.8,4.8,0,0,1,2.2,1.5,3.9,3.9,0,0,1,1,2.9,4.8,4.8,0,0,1-.9,2.9,5.8,5.8,0,0,1-2.5,2.1,10.4,10.4,0,0,1-4.1.7A16.1,16.1,0,0,1,25.7,34.5Z"/>
      <path class="b" d="M38.7,17.6h5.4V34.5H38.7Z"/>
      <path class="b" d="M57.7,31.6H51.6l-1.1,2.9H45l7-16.9h5.4l7,16.9H58.8Zm-1.5-4.1-1.5-4.3-1.6,4.3Z"/>
      <path class="b" d="M72.2,30.3H70.7v4.2H65.3V17.6h7.8a9.2,9.2,0,0,1,3.8.8,5.7,5.7,0,0,1,2.6,2.2,6.4,6.4,0,0,1,.9,3.4,6.6,6.6,0,0,1-.8,3.2,5.6,5.6,0,0,1-2.2,2.1l3.3,5.2H74.9Zm2.2-7.7a2.4,2.4,0,0,0-1.7-.6h-2v4h2a2.9,2.9,0,0,0,1.7-.5,2.5,2.5,0,0,0,.5-1.5A2,2,0,0,0,74.4,22.6Z"/>
      <path class="b" d="M93.1,25.6h4.7v7.2a10.1,10.1,0,0,1-3.3,1.6,15.7,15.7,0,0,1-3.7.5,9,9,0,0,1-4.6-1.1A7.4,7.4,0,0,1,83,30.7a9.4,9.4,0,0,1,0-9.2,7.4,7.4,0,0,1,3.2-3.1,9.3,9.3,0,0,1,4.7-1.1,10,10,0,0,1,4.3.8,9.2,9.2,0,0,1,3.1,2.4l-3.5,3.2a4.5,4.5,0,0,0-3.6-1.8A4.2,4.2,0,0,0,88.3,23a4.5,4.5,0,0,0-1,3.1,4.5,4.5,0,0,0,1,3.1,3.9,3.9,0,0,0,2.8,1.1,4.5,4.5,0,0,0,2-.4Z"/>
      <path class="b" d="M111.1,31.6H105l-1.1,2.9H98.4l7.1-16.9h5.3l7,16.9h-5.6Zm-1.4-4.1-1.6-4.3-1.6,4.3Z"/>
      <path class="b" d="M122.5,33.8a7.6,7.6,0,0,1-3.2-3.2,8.4,8.4,0,0,1-1.2-4.5,9,9,0,0,1,1.2-4.6,8,8,0,0,1,3.2-3.1,9.1,9.1,0,0,1,4.7-1.1,8.7,8.7,0,0,1,4.6,1.1,9,9,0,0,1,3.3,3.1,9,9,0,0,1,1.2,4.6,8.7,8.7,0,0,1-4.5,7.7,8.7,8.7,0,0,1-4.6,1.1A9.1,9.1,0,0,1,122.5,33.8Zm6.5-4a2.8,2.8,0,0,0,1.3-1.5,5.1,5.1,0,0,0,.5-2.2,4.8,4.8,0,0,0-.5-2.2,2.8,2.8,0,0,0-1.3-1.5,2.7,2.7,0,0,0-1.8-.5,3.2,3.2,0,0,0-1.9.5,3.9,3.9,0,0,0-1.3,1.5,4.8,4.8,0,0,0-.4,2.2,5.1,5.1,0,0,0,.4,2.2,3.9,3.9,0,0,0,1.3,1.5,4.1,4.1,0,0,0,1.9.5A3.5,3.5,0,0,0,129,29.8Z"/>
      <path class="b" d="M146.6,31.2a4.7,4.7,0,0,1-1.3-1.5,3.5,3.5,0,0,1-.5-2,3.6,3.6,0,0,1,.5-2.1,3.5,3.5,0,0,1,1.3-1.4,4.1,4.1,0,0,1,1.9-.5,4.2,4.2,0,0,1,2,.5,4.7,4.7,0,0,1,1.4,1.4,4.6,4.6,0,0,1,.5,2.1,4.6,4.6,0,0,1-.5,2,5,5,0,0,1-1.4,1.5,4.2,4.2,0,0,1-2,.5A4.5,4.5,0,0,1,146.6,31.2Z"/>
      <path class="b" d="M172.5,31.6h-6.1l-1.1,2.9h-5.5l7-16.9h5.3l7.1,16.9h-5.6ZM171,27.5l-1.6-4.3-1.5,4.3Z"/>
      <path class="b" d="M182,32.8a7.9,7.9,0,0,1-2.1-5.9V17.6h5.5v9.2a4.9,4.9,0,0,0,.6,2.7,2.2,2.2,0,0,0,1.8.8,2.6,2.6,0,0,0,1.9-.8,4.9,4.9,0,0,0,.6-2.7V17.6h5.3v9.3a8.3,8.3,0,0,1-2,5.9,9.1,9.1,0,0,1-11.6,0Z"/>
      <path class="b" d="M208.8,25.6h4.7v7.2a10.1,10.1,0,0,1-3.3,1.6,16.4,16.4,0,0,1-3.7.5,8.7,8.7,0,0,1-4.6-1.1,8.2,8.2,0,0,1-3.3-3.1,10.2,10.2,0,0,1,0-9.2,8.2,8.2,0,0,1,3.3-3.1,11,11,0,0,1,8.9-.3,9.6,9.6,0,0,1,3.2,2.4l-3.5,3.2a4.5,4.5,0,0,0-3.6-1.8A4,4,0,0,0,204,23a4.5,4.5,0,0,0-1,3.1,4.5,4.5,0,0,0,1,3.1,3.8,3.8,0,0,0,2.8,1.1,4.5,4.5,0,0,0,2-.4Z"/>
      <path class="b" d="M217.8,32.8a7.9,7.9,0,0,1-2.1-5.9V17.6h5.4v9.2a4.1,4.1,0,0,0,.7,2.7,2.4,2.4,0,0,0,3.6,0,4.8,4.8,0,0,0,.7-2.7V17.6h5.3v9.3a7.9,7.9,0,0,1-2.1,5.9,7.8,7.8,0,0,1-5.8,2.1A7.7,7.7,0,0,1,217.8,32.8Z"/>
      <path class="b" d="M236,34.5a13.1,13.1,0,0,1-3.1-1.3l1.7-4.2a12.3,12.3,0,0,0,2.6,1.2,14.7,14.7,0,0,0,2.7.4l1.7-.2a.8.8,0,0,0,.4-.7c0-.4-.2-.6-.6-.8l-2.1-.6-3.1-.9a6.2,6.2,0,0,1-2.2-1.5,4.4,4.4,0,0,1-.9-2.9,4.8,4.8,0,0,1,.9-2.9,5.3,5.3,0,0,1,2.5-2.1,10.4,10.4,0,0,1,4.1-.7,18.4,18.4,0,0,1,3.3.3,14.9,14.9,0,0,1,2.8,1.1l-1.6,4.2a9.1,9.1,0,0,0-4.5-1.3c-1.4,0-2.1.4-2.1,1.1a.7.7,0,0,0,.6.7l2.1.6a19.8,19.8,0,0,1,3.1.8,5.4,5.4,0,0,1,2.2,1.5,4.4,4.4,0,0,1,.9,2.9,5.5,5.5,0,0,1-.8,2.9,6.1,6.1,0,0,1-2.6,2.1,10,10,0,0,1-4.1.7A17.2,17.2,0,0,1,236,34.5Z"/>
      <path class="b" d="M252.5,22.1h-4.7V17.6h14.9v4.5H258V34.5h-5.5Z"/>
    </g>
  </g>
</svg>
